<svg xmlns:xlink="http://www.w3.org/1999/xlink" xmlns="http://www.w3.org/2000/svg" class="PressLogo PressHomepageMenu__logo " data-js-controller="PressLogo" data-js-target="PressHomepageMenu.logoEl" viewBox="0 0 92.4 154.11" style="--color: #ffffff;" width="92.4"  height="154.11" >
<path class="PressLogo__path PressLogo__path--s" data-js-target-list="PressLogo.pathEls" d="M56.8,3.51H50.2c-27.7-.4-46.7,19.6-46.7,43.7h0a43.67,43.67,0,0,0,23.2,38.6c5.3,2.8,11.1,4.4,17.4,6.1l5.1,1.2c6.2,1.4,12.4,4.4,14.9,11.4a14.79,14.79,0,0,1,.3,9.3c-2.1,7.6-9.7,13.1-20.2,13.1H3.5" transform="translate(-1 -1)" fill="none" stroke-linecap="round" stroke-miterlimit="10" stroke-width="5px" stroke="#FFFFFF"></path>
<path class="PressLogo__path PressLogo__path--s" data-js-target-list="PressLogo.pathEls" d="M74.8,16.31H50.1c-19.4-.2-33.9,13.8-33.9,30.9,0,17.9,13.2,28.9,30.7,32.3,18,3.7,31.1,12.4,31.1,29.4s-13.9,30.9-33.9,30.9H16.3" transform="translate(-1 -1)" fill="none" stroke-linecap="round" stroke-miterlimit="10" stroke-width="5px" stroke="#FFFFFF"></path>
<path class="PressLogo__path PressLogo__path--s" data-js-target-list="PressLogo.pathEls" d="M85.3,29.21H47.2a18,18,0,0,0-18,18c0,10,7.6,17.4,18,19.5C71.8,71,90.9,84.81,90.9,109s-19.5,43.6-46.7,43.6H34" transform="translate(-1 -1)" fill="none" stroke-linecap="round" stroke-miterlimit="10" stroke-width="5px" stroke="#FFFFFF"></path>

<path class="PressLogo__path PressLogo__path--p1" data-js-target-list="PressLogo.lineEls" d="M3.5,126V47.21" transform="translate(-1 -1)" fill="none" stroke-linecap="round" stroke-miterlimit="10" stroke-width="5px" stroke="#FFFFFF"></path>
<line class="PressLogo__path PressLogo__path--p1" data-js-target-list="PressLogo.lineEls" x1="15.3" y1="124" x2="15.3" y2="77.11" fill="none" stroke-linecap="round" stroke-miterlimit="10" stroke-width="5px" stroke="#FFFFFF"></line>
<line class="PressLogo__path PressLogo__path--p1" data-js-target-list="PressLogo.lineEls" x1="28.2" y1="124" x2="28.2" y2="86.01" fill="none" stroke-linecap="round" stroke-miterlimit="10" stroke-width="5px" stroke="#FFFFFF"></line>

<path class="PressLogo__path PressLogo__path--p2" data-js-target-list="PressLogo.pathEls" d="M72.3,29.21a31.16,31.16,0,0,1,5.8,18,31.84,31.84,0,0,1-11.2,24l-1.2,1" transform="translate(-1 -1)" fill="none" stroke-linecap="round" stroke-miterlimit="10" stroke-width="5px" stroke="#FFFFFF"></path>
<path class="PressLogo__path PressLogo__path--p2" data-js-target-list="PressLogo.pathEls" d="M85.3,29.21a2.5,2.5,0,0,1,2.4,1.6,44.24,44.24,0,0,1,3.2,16.3,43.47,43.47,0,0,1-12.8,30.8l-1.2,1.2" transform="translate(-1 -1)" fill="none" stroke-linecap="round" stroke-miterlimit="10" stroke-width="5px" stroke="#FFFFFF"></path>
<path class="PressLogo__path PressLogo__path--p2" data-js-target="PressHomepageMenu.lastLineEl" data-js-target-list="PressLogo.pathEls" d="M47.2,29.21a18,18,0,0,1,18,18c0,9.9-8.1,19.3-18,19.3" transform="translate(-1 -1)" fill="none" stroke-linecap="round" stroke-miterlimit="10" stroke-width="5px" stroke="#FFFFFF"></path>
</svg>